<mxfile host="app.diagrams.net" modified="2024-07-23T07:36:03.152Z" agent="Mozilla/5.0 (Windows NT 10.0; Win64; x64) AppleWebKit/537.36 (KHTML, like Gecko) Chrome/126.0.0.0 Safari/537.36" etag="kVvUDBBeX_ojmCkvJvMm" version="24.6.4" type="github">
  <diagram name="PÃ¡gina-1" id="IatA6-2UUtiVM0yUK-LR">
    <mxGraphModel dx="1434" dy="796" grid="1" gridSize="10" guides="1" tooltips="1" connect="1" arrows="1" fold="1" page="1" pageScale="1" pageWidth="827" pageHeight="1169" math="0" shadow="0">
      <root>
        <mxCell id="0" />
        <mxCell id="1" parent="0" />
        <mxCell id="vNPM_esbmkzsb47sKW7_-23" value="" style="edgeStyle=orthogonalEdgeStyle;rounded=0;orthogonalLoop=1;jettySize=auto;html=1;" edge="1" parent="1" source="vNPM_esbmkzsb47sKW7_-1" target="vNPM_esbmkzsb47sKW7_-11">
          <mxGeometry relative="1" as="geometry" />
        </mxCell>
        <mxCell id="vNPM_esbmkzsb47sKW7_-1" value="Inicio" style="rounded=1;whiteSpace=wrap;html=1;" vertex="1" parent="1">
          <mxGeometry x="350" y="80" width="120" height="60" as="geometry" />
        </mxCell>
        <mxCell id="vNPM_esbmkzsb47sKW7_-14" value="" style="edgeStyle=orthogonalEdgeStyle;rounded=0;orthogonalLoop=1;jettySize=auto;html=1;" edge="1" parent="1" source="vNPM_esbmkzsb47sKW7_-2" target="vNPM_esbmkzsb47sKW7_-7">
          <mxGeometry relative="1" as="geometry" />
        </mxCell>
        <mxCell id="vNPM_esbmkzsb47sKW7_-2" value="Leer landX, landY" style="rounded=1;whiteSpace=wrap;html=1;" vertex="1" parent="1">
          <mxGeometry x="350" y="380" width="120" height="60" as="geometry" />
        </mxCell>
        <mxCell id="vNPM_esbmkzsb47sKW7_-13" value="" style="edgeStyle=orthogonalEdgeStyle;rounded=0;orthogonalLoop=1;jettySize=auto;html=1;" edge="1" parent="1" source="vNPM_esbmkzsb47sKW7_-3" target="vNPM_esbmkzsb47sKW7_-2">
          <mxGeometry relative="1" as="geometry" />
        </mxCell>
        <mxCell id="vNPM_esbmkzsb47sKW7_-3" value="Bucle For (i &amp;lt; surfaceN)" style="rounded=1;whiteSpace=wrap;html=1;" vertex="1" parent="1">
          <mxGeometry x="320" y="290" width="180" height="60" as="geometry" />
        </mxCell>
        <mxCell id="vNPM_esbmkzsb47sKW7_-20" style="edgeStyle=orthogonalEdgeStyle;rounded=0;orthogonalLoop=1;jettySize=auto;html=1;entryX=0;entryY=0.5;entryDx=0;entryDy=0;" edge="1" parent="1" source="vNPM_esbmkzsb47sKW7_-4" target="vNPM_esbmkzsb47sKW7_-10">
          <mxGeometry relative="1" as="geometry" />
        </mxCell>
        <mxCell id="vNPM_esbmkzsb47sKW7_-4" value="Si: Imprimir &#39;0 4&#39;" style="rounded=1;whiteSpace=wrap;html=1;" vertex="1" parent="1">
          <mxGeometry x="150" y="930" width="120" height="60" as="geometry" />
        </mxCell>
        <mxCell id="vNPM_esbmkzsb47sKW7_-21" style="edgeStyle=orthogonalEdgeStyle;rounded=0;orthogonalLoop=1;jettySize=auto;html=1;entryX=1;entryY=0.5;entryDx=0;entryDy=0;" edge="1" parent="1" source="vNPM_esbmkzsb47sKW7_-5" target="vNPM_esbmkzsb47sKW7_-10">
          <mxGeometry relative="1" as="geometry" />
        </mxCell>
        <mxCell id="vNPM_esbmkzsb47sKW7_-5" value="No: Imprimir &#39;0 0&#39;" style="rounded=1;whiteSpace=wrap;html=1;" vertex="1" parent="1">
          <mxGeometry x="560" y="930" width="120" height="60" as="geometry" />
        </mxCell>
        <mxCell id="vNPM_esbmkzsb47sKW7_-18" style="edgeStyle=orthogonalEdgeStyle;rounded=0;orthogonalLoop=1;jettySize=auto;html=1;entryX=0.5;entryY=0;entryDx=0;entryDy=0;" edge="1" parent="1" source="vNPM_esbmkzsb47sKW7_-6" target="vNPM_esbmkzsb47sKW7_-4">
          <mxGeometry relative="1" as="geometry" />
        </mxCell>
        <mxCell id="vNPM_esbmkzsb47sKW7_-19" style="edgeStyle=orthogonalEdgeStyle;rounded=0;orthogonalLoop=1;jettySize=auto;html=1;entryX=0.5;entryY=0;entryDx=0;entryDy=0;" edge="1" parent="1" source="vNPM_esbmkzsb47sKW7_-6" target="vNPM_esbmkzsb47sKW7_-5">
          <mxGeometry relative="1" as="geometry" />
        </mxCell>
        <mxCell id="vNPM_esbmkzsb47sKW7_-6" value="Condicion: vSpeed &amp;lt; -38" style="rounded=1;whiteSpace=wrap;html=1;" vertex="1" parent="1">
          <mxGeometry x="320" y="820" width="180" height="60" as="geometry" />
        </mxCell>
        <mxCell id="vNPM_esbmkzsb47sKW7_-15" value="" style="edgeStyle=orthogonalEdgeStyle;rounded=0;orthogonalLoop=1;jettySize=auto;html=1;" edge="1" parent="1" source="vNPM_esbmkzsb47sKW7_-7" target="vNPM_esbmkzsb47sKW7_-8">
          <mxGeometry relative="1" as="geometry" />
        </mxCell>
        <mxCell id="vNPM_esbmkzsb47sKW7_-7" value="Fin Bucle For" style="rounded=1;whiteSpace=wrap;html=1;" vertex="1" parent="1">
          <mxGeometry x="350" y="480" width="120" height="60" as="geometry" />
        </mxCell>
        <mxCell id="vNPM_esbmkzsb47sKW7_-16" value="" style="edgeStyle=orthogonalEdgeStyle;rounded=0;orthogonalLoop=1;jettySize=auto;html=1;" edge="1" parent="1" source="vNPM_esbmkzsb47sKW7_-8" target="vNPM_esbmkzsb47sKW7_-9">
          <mxGeometry relative="1" as="geometry" />
        </mxCell>
        <mxCell id="vNPM_esbmkzsb47sKW7_-8" value="Inicio del bucle del juego (while true)" style="rounded=1;whiteSpace=wrap;html=1;" vertex="1" parent="1">
          <mxGeometry x="280" y="584.5" width="260" height="60" as="geometry" />
        </mxCell>
        <mxCell id="vNPM_esbmkzsb47sKW7_-17" value="" style="edgeStyle=orthogonalEdgeStyle;rounded=0;orthogonalLoop=1;jettySize=auto;html=1;" edge="1" parent="1" source="vNPM_esbmkzsb47sKW7_-9" target="vNPM_esbmkzsb47sKW7_-6">
          <mxGeometry relative="1" as="geometry" />
        </mxCell>
        <mxCell id="vNPM_esbmkzsb47sKW7_-9" value="Leer X, Y, hSpeed, vSpeed, fuel, rotate, power" style="rounded=1;whiteSpace=wrap;html=1;" vertex="1" parent="1">
          <mxGeometry x="250" y="700" width="320" height="60" as="geometry" />
        </mxCell>
        <mxCell id="vNPM_esbmkzsb47sKW7_-10" value="Fin del bucle del juego (repite)" style="rounded=1;whiteSpace=wrap;html=1;" vertex="1" parent="1">
          <mxGeometry x="320" y="1040" width="180" height="60" as="geometry" />
        </mxCell>
        <mxCell id="vNPM_esbmkzsb47sKW7_-22" value="" style="edgeStyle=orthogonalEdgeStyle;rounded=0;orthogonalLoop=1;jettySize=auto;html=1;" edge="1" parent="1" source="vNPM_esbmkzsb47sKW7_-11" target="vNPM_esbmkzsb47sKW7_-3">
          <mxGeometry relative="1" as="geometry" />
        </mxCell>
        <mxCell id="vNPM_esbmkzsb47sKW7_-11" value="Leer SurfaceN" style="rounded=1;whiteSpace=wrap;html=1;" vertex="1" parent="1">
          <mxGeometry x="350" y="190" width="120" height="60" as="geometry" />
        </mxCell>
      </root>
    </mxGraphModel>
  </diagram>
</mxfile>
